<?xml version="1.0" encoding="utf-8"?>
<!-- Generator: Adobe Illustrator 25.4.1, SVG Export Plug-In . SVG Version: 6.00 Build 0)  -->
<svg version="1.1" id="Layer_1" xmlns="http://www.w3.org/2000/svg" xmlns:xlink="http://www.w3.org/1999/xlink" x="0px" y="0px"
	 viewBox="0 0 3024 3024" style="enable-background:new 0 0 3024 3024;" xml:space="preserve">
<style type="text/css">
	.st0{clip-path:url(#SVGID_00000148637558050613656510000003992945798863805075_);fill:#231F20;}
</style>
<g>
	<defs>
		<polyline id="SVGID_1_" points="0,3563.23 0,539.23 3024,539.23 3024,3563.23 		"/>
	</defs>
	<clipPath id="SVGID_00000071540096671007545990000009030528870886279095_">
		<use xlink:href="#SVGID_1_"  style="overflow:visible;"/>
	</clipPath>
	<path style="clip-path:url(#SVGID_00000071540096671007545990000009030528870886279095_);fill:#231F20;" d="M1334.79,1303.7
		c-51.98-90.75-125.22-161.12-219.93-211.45c-94.71-50.11-205.51-75.33-332.16-75.33H332.49v250.55h292.73v-0.55h138.65
		c110.68,0,196.92,30.84,258.48,92.4c61.67,61.67,92.51,147.91,92.51,258.59c0,110.68-30.84,196.25-92.51,256.71
		c-61.56,60.57-147.8,90.75-258.48,90.75H625.22v-0.66H332.49v254.07h450.22c125.55,0,236.01-25.11,331.27-75.33
		c95.26-50.22,168.83-121.03,220.81-212.33c51.98-91.3,77.97-195.7,77.97-313.21C1412.77,1499.19,1386.78,1394.45,1334.79,1303.7"/>
	<path style="clip-path:url(#SVGID_00000071540096671007545990000009030528870886279095_);fill:#231F20;" d="M1766.21,2151.99
		c-94.17-52.48-168.92-125.83-224.26-219.98c-55.39-94.15-83.03-200-83.03-317.56c0-117.54,27.64-223.11,83.03-316.71
		c55.34-93.57,130.09-166.62,224.26-219.13c94.15-52.49,197.72-78.75,310.71-78.75c112.99,0,216.56,26.27,310.71,78.75
		c94.15,52.51,168.34,125.56,222.56,219.13c54.18,93.59,81.31,199.17,81.31,316.71c0,117.56-27.38,223.41-82.17,317.56
		c-54.79,94.15-129,167.5-222.56,219.98c-93.59,52.51-196.86,78.75-309.85,78.75C1963.93,2230.74,1860.36,2204.49,1766.21,2151.99
		 M2307.17,1867.81c57.62-63.91,86.47-148.35,86.47-253.37c0-106.14-28.84-190.88-86.47-254.22
		c-57.62-63.34-134.37-95.02-230.24-95.02c-97.01,0-174.36,31.41-231.96,94.16c-57.65,62.78-86.45,147.82-86.45,255.08
		c0,106.14,28.8,190.88,86.45,254.22c57.6,63.34,134.95,95.02,231.96,95.02C2172.8,1963.68,2249.54,1931.74,2307.17,1867.81"/>
</g>
</svg>
