<?xml version="1.0" encoding="UTF-8"?>
<svg id="Layer_1" data-name="Layer 1" xmlns="http://www.w3.org/2000/svg" viewBox="0 0 1080 1080">
  <defs>
    <style>
      .cls-1 {
        fill: #231f20;
      }
    </style>
  </defs>
  <path class="cls-1" d="M465.76,416.58c-21.78-38.02-52.46-67.5-92.14-88.59-39.68-20.99-86.09-31.56-139.15-31.56H45.85v104.97h122.64v-.23h58.09c46.37,0,82.5,12.92,108.29,38.71,25.84,25.84,38.76,61.96,38.76,108.33s-12.92,82.22-38.76,107.55c-25.79,25.38-61.92,38.02-108.29,38.02h-58.09v-.28H45.85v106.44H234.47c52.6,0,98.88-10.52,138.78-31.56,39.91-21.04,70.73-50.71,92.51-88.96,21.78-38.25,32.67-81.99,32.67-131.22s-10.89-93.62-32.67-131.63Z"/>
  <path class="cls-1" d="M646.5,762.73c-39.45-21.99-70.77-52.72-93.95-92.16-23.2-39.45-34.78-83.79-34.78-133.04s11.58-93.47,34.78-132.68c23.19-39.2,54.5-69.81,93.95-91.8,39.44-21.99,82.83-32.99,130.17-32.99s90.73,11.01,130.17,32.99c39.44,22,70.52,52.6,93.24,91.8,22.7,39.21,34.06,83.44,34.06,132.68s-11.47,93.6-34.42,133.04c-22.95,39.44-54.04,70.17-93.24,92.16-39.21,22-82.47,32.99-129.81,32.99s-90.73-10.99-130.17-32.99Zm226.63-119.05c24.14-26.77,36.23-62.15,36.23-106.15s-12.08-79.97-36.23-106.5c-24.14-26.54-56.29-39.81-96.46-39.81s-73.05,13.16-97.18,39.45c-24.15,26.3-36.22,61.93-36.22,106.86s12.07,79.97,36.22,106.5c24.13,26.54,56.54,39.81,97.18,39.81s72.32-13.38,96.46-40.16Z"/>
</svg>