<?xml version="1.0" encoding="utf-8"?>
<!-- Generator: Adobe Illustrator 25.4.1, SVG Export Plug-In . SVG Version: 6.00 Build 0)  -->
<svg version="1.1" id="Layer_1" xmlns="http://www.w3.org/2000/svg" xmlns:xlink="http://www.w3.org/1999/xlink" x="0px" y="0px"
	 viewBox="0 0 2173 643" style="enable-background:new 0 0 2173 643;" xml:space="preserve">
<path d="M734,540.1c-82.3-29.5-140-103.5-149.6-190.6c-6.1-55.2,3.9-109.6,33.5-156.9c37.1-59.2,98.8-97.3,167.9-106
	c132.4-16.7,252.5,68.7,266.1,204.7c2.4,24.2,1.7,48.1-2.1,71.7c-11.6,70.9-56,132.6-119.9,165.4C869.9,559.2,797.2,562.8,734,540.1
	z M879.2,200.6c-22-12.1-46.9-15.9-71.9-14.1c-37.8,2.7-66.9,18.9-87.4,48.6c-8.8,12.8-15.2,28.3-18.4,43.4
	c-5.5,25.5-5.8,51.2-0.8,77c9.6,49.7,45,88.5,96.1,95.4c49.5,6.7,94.3-8.3,121.4-50.6c9-14.1,15-29.9,18.1-46.3
	c4.7-25.4,4.3-50.6-1.3-75.6C927.8,246.2,908.5,216.7,879.2,200.6z"/>
<path d="M561.1,280.6c14.8,85-8.8,177.7-80.8,230.8c-24.8,18.3-52.4,31.1-82.6,38.6c-22.4,5.5-45.1,8.3-68.2,8.3
	c-58.8,0.2-117.7,0.3-176.5,0.3c-0.2,0-0.3-0.1-0.3-0.3c0,0,0,0,0,0v-96.7c0-0.2,0.1-0.3,0.3-0.3c55.9,0,111.8,0.1,167.7,0.3
	c15.8,0.1,32-2.4,48.4-7.4c44-13.4,71.7-47.4,79.3-91.9c4-23.4,3.8-46.7-0.7-69.7c-6-30.8-21.1-56.4-46.7-74.6
	c-24.6-17.4-54.7-22.7-84.2-22.7c-54.6,0-109.1,0-163.7,0c-0.3,0-0.5-0.2-0.5-0.5V100c0-0.3,0.2-0.5,0.5-0.5
	c93-0.1,152.5-0.1,178.5,0c8.8,0,19.2,0.7,31,2C463.2,112.8,543.4,178.3,561.1,280.6z"/>
<path d="M1831,256.3c-12.6,15.2-42.1,14.2-51.6-4c-7.5-14.4-1.9-31.2,13.1-38.2c4.9-2.3,10.7-3.2,17.2-2.8
	c8.1,0.6,14.8,3.7,20.2,9.2C1839.1,230.1,1839.4,246.1,1831,256.3z"/>
<path d="M1705,305.7V230c0-0.3,0.2-0.5,0.5-0.5h50.2c0.3,0,0.5,0.2,0.5,0.5v220.2c0,0.3-0.2,0.5-0.5,0.5h-50.2
	c-0.3,0-0.5-0.2-0.5-0.5v-22c0-0.6-0.2-0.6-0.5-0.2c-9.9,13.9-23.3,21.9-40.4,24.2c-41.9,5.5-74-22.4-81.8-62.2
	C1573,342,1593,286,1648.8,281.6c22.9-1.8,41.5,6.3,55.8,24.2C1704.9,306.1,1705,306.1,1705,305.7z M1664.9,408.1
	c19.4,2,35.4-11.1,39-29.9c1.5-7.9,1.4-15.7-0.2-23.2c-4.8-21.7-26.6-34.5-47.7-26.5c-21.7,8.2-27.1,32-21.9,52.5
	C1637.7,395.5,1649.9,406.6,1664.9,408.1z"/>
<path d="M1299.5,326.5H1280c-0.3,0-0.5-0.2-0.5-0.5v-41.8c0-0.3,0.2-0.5,0.5-0.5h19.5c0.3,0,0.5-0.2,0.5-0.5v-39.5
	c0-0.3,0.2-0.5,0.5-0.5h50.2c0.3,0,0.5,0.2,0.5,0.5v39.5c0,0.3,0.2,0.5,0.5,0.5h32.5c0.3,0,0.5,0.2,0.5,0.5v41.3c0,0.6-0.5,1-1,1
	l-32,0c-0.3,0-0.5,0.2-0.5,0.5c-0.1,21.5-0.1,43,0,64.4c0,9.4,2,14.8,12,15.4c7.1,0.4,14.1,0.6,21.2,0.3c0.4,0,0.6,0.2,0.6,0.6v42.5
	c0,0.3-0.1,0.4-0.4,0.4c-14.4,0.4-26.4,0.3-35.8-0.4c-4.6-0.3-9.9-1.5-16-3.5c-24.9-8.2-32.8-28.7-32.8-53.1c0-22.2,0-44.4,0-66.6
	C1300,326.7,1299.8,326.5,1299.5,326.5z"/>
<path d="M1181.7,334c1.6,9.8,18,13,26,14.8c10,2.3,19.9,5.2,29.6,8.6c18.9,6.6,33.4,18.6,34.9,40.1c1.3,18.6-5.5,33-20.3,43
	c-23.8,16-61.1,16.1-86.7,4.7c-20.2-9-35.2-26.5-37-49c0-0.3,0.1-0.5,0.4-0.5h49.5c0.4,0,0.6,0.2,0.7,0.6
	c3,16.8,21.2,21.8,35.6,17.5c3.5-1,6.1-2.9,7.9-5.7c3.3-4.9,2.5-11.4-2.4-14.9c-2-1.5-4.9-2.8-8.7-4c-14.7-4.7-32.3-8-48.8-14.5
	c-7.9-3.1-14.5-7.8-20.1-14.2c-12.1-13.9-10.8-36.4-2.5-50.8c14.4-25.1,47.8-30.4,73.9-27.5c31.4,3.4,54.6,23.2,57.8,55.8
	c0,0.3-0.1,0.5-0.5,0.5H1225c-0.3,0-0.5-0.2-0.6-0.5c-2.9-15.3-16.2-19.9-30.2-18C1187.1,321.1,1180.5,326.1,1181.7,334z"/>
<path d="M2017.2,342.2c10.1,40.2-4.2,84.5-44,102.3c-17.4,7.8-35.7,10.3-54.7,7.6c-34.6-4.9-60.2-27-68.8-60.8
	c-4.9-19.1-3.7-42.2,4.2-60.5c16.2-37.4,53.8-53.6,93.6-48.5C1981.1,286.7,2008.9,309,2017.2,342.2z M1920.6,328.5
	c-19,7.6-22.7,27.7-21,46.5c1.6,17.1,12.1,32,30.3,33.4c11.1,0.9,20.3-2.5,27.7-10.3c10.2-10.7,11.6-25.6,10-39.6
	C1964.8,334.9,1943.9,319.2,1920.6,328.5z"/>
<path d="M1514.2,429.2c-15.5,18.2-35.5,25.7-60,22.6c-36.7-4.6-54.5-34.8-54.6-69.3c-0.1-32.7-0.1-65.5,0-98.2
	c0-0.3,0.2-0.5,0.5-0.5h49.9c0.3,0,0.5,0.2,0.5,0.5c0,30.8,0,61.7,0,92.5c0,9,3.9,20.5,11.7,26.4c8.4,6.5,20.3,7.8,30.5,5
	c14.2-3.9,21.6-17,21.6-31.7c0.1-30.8,0.1-61.5,0.2-92.3c0-0.3,0.2-0.5,0.5-0.5h50.2c0.3,0,0.5,0.2,0.5,0.5v166
	c0,0.3-0.2,0.5-0.5,0.5H1515c-0.3,0-0.5-0.2-0.5-0.5v-21C1514.5,429,1514.4,428.9,1514.2,429.2z"/>
<path d="M1781.3,283.8h50.6c0.2,0,0.3,0.1,0.3,0.3v166.4c0,0.2-0.1,0.3-0.3,0.3h-50.6c-0.2,0-0.3-0.1-0.3-0.3V284.1
	C1781,283.9,1781.1,283.8,1781.3,283.8z"/>
<circle cx="1322.3" cy="487.2" r="3.3"/>
<circle cx="1657" cy="487.3" r="3.3"/>
<path d="M1562,517.4l0,14.2c0,0.2-0.1,0.3-0.3,0.3l-4.3,0.1c-0.2,0-0.3-0.1-0.3-0.3c0,0,0,0,0,0v-46.9c0-0.2,0.1-0.3,0.3-0.3l0,0
	h4.4c0.2,0,0.3,0.1,0.3,0.3l0,26.7c0,0.2,0.1,0.3,0.3,0.3c0.1,0,0.2,0,0.2-0.1l13.9-14.7c0.1-0.1,0.1-0.1,0.2-0.1h6.2
	c0.2,0,0.3,0.1,0.3,0.3c0,0.1,0,0.2-0.1,0.2l-16.8,16.8c-0.1,0.1-0.1,0.3,0,0.4c0,0,0,0,0,0l16.7,16.7c0.1,0.1,0.1,0.3,0,0.4
	c-0.1,0.1-0.1,0.1-0.2,0.1l-5.9,0c-0.1,0-0.2,0-0.2-0.1l-14.2-14.7c-0.1-0.1-0.3-0.1-0.4,0C1562,517.3,1562,517.3,1562,517.4z"/>
<path d="M1170.1,500c-4.1-8.3-14.3-11.2-22.6-7.8c-9.7,4-12.8,14.2-10.1,23.8c4.3,14.9,25.5,17,32.8,3.2c0.2-0.3,0.4-0.4,0.7-0.4
	h3.8c1.4,0,1.8,0.6,1,1.8c-3.4,5.4-7.8,9-13.1,10.7c-16.9,5.5-33.1-6.8-31-24.8c2.6-22.8,35.8-27.2,44.2-6.6c0.2,0.4,0,0.6-0.4,0.6
	h-4.5C1170.6,500.5,1170.3,500.3,1170.1,500z"/>
<path d="M1472,498.4l-15.1,32.3c-0.6,1.3-2.2,1.9-3.6,1.3c-0.6-0.3-1-0.7-1.3-1.3l-15.1-32.1c-0.1-0.1-0.2-0.2-0.3-0.1
	c-0.1,0-0.2,0.1-0.2,0.2l0,32.6c0,0.4-0.2,0.6-0.6,0.6h-3.8c-0.4,0-0.6-0.2-0.6-0.6v-43.1c0-0.3,0.2-0.5,0.5-0.5h4.2
	c0.3,0,0.5,0.1,0.6,0.4l17.3,36.9c0.1,0.2,0.3,0.3,0.5,0.2c0.1,0,0.1-0.1,0.2-0.2l17.2-36.8c0.2-0.3,0.4-0.5,0.8-0.5l4.2,0
	c0.3,0,0.5,0.2,0.5,0.5v43.1c0,0.4-0.2,0.6-0.6,0.6h-3.8c-0.4,0-0.6-0.2-0.6-0.6v-32.8C1472.5,497.8,1472.3,497.7,1472,498.4z"/>
<path d="M1802.4,521.5h-20.7c-0.1,0-0.3,0.1-0.3,0.2l-3.9,10.1c0,0.1-0.2,0.2-0.3,0.2h-4.6c-0.2,0-0.3-0.1-0.3-0.3c0,0,0-0.1,0-0.1
	l16.9-43.6c0-0.1,0.2-0.2,0.3-0.2h5c0.1,0,0.3,0.1,0.3,0.2l16.8,43.6c0.1,0.2,0,0.3-0.2,0.4c0,0-0.1,0-0.1,0l-4.6,0
	c-0.1,0-0.3-0.1-0.3-0.2l-3.9-10.1C1802.7,521.6,1802.5,521.5,1802.4,521.5z M1783.2,517c-0.1,0.2,0,0.4,0.2,0.4c0,0,0.1,0,0.1,0
	h17.1c0.2,0,0.3-0.2,0.3-0.3c0,0,0-0.1,0-0.1l-8.5-22.3c-0.1-0.2-0.3-0.3-0.4-0.2c-0.1,0-0.2,0.1-0.2,0.2L1783.2,517z"/>
<path d="M1296.7,501l-4,0c-0.3,0-0.5-0.2-0.5-0.5v-3c0-0.3,0.2-0.5,0.5-0.5h4c0.3,0,0.5-0.2,0.5-0.5v-7.8c0-0.3,0.2-0.5,0.5-0.5h4
	c0.3,0,0.5,0.2,0.5,0.5l0,7.8c0,0.3,0.2,0.5,0.5,0.5h9c0.3,0,0.5,0.2,0.5,0.5v3c0,0.3-0.2,0.5-0.5,0.5h-9c-0.3,0-0.5,0.2-0.5,0.5
	c0,7.3,0,14.5,0.1,21.7c0.1,5.9,5.5,4.7,9.4,4.8c0.3,0,0.5,0.2,0.5,0.5v3c0,0.3-0.2,0.5-0.5,0.5c-7.2,0.1-14.5,0.4-14.5-9.2
	c0-7.1,0-14.1,0-21.2C1297.2,501.2,1297.1,501,1296.7,501z"/>
<path d="M1637,501.6c-0.1,5-0.1,12.1,0.1,21.4c0.1,6,5.2,5,9.4,5c0.3,0,0.5,0.2,0.5,0.5v2.9c0,0.2-0.1,0.4-0.4,0.4
	c-6.6,0.7-14.2,0.5-14.4-7.9c-0.2-7.5-0.2-15-0.2-22.5c0-0.5-0.3-0.7-0.8-0.7l-3.4,0.3c-0.4,0-0.7-0.3-0.8-0.6c0,0,0,0,0,0l-0.1-2.5
	c0-0.6,0.3-0.9,0.9-0.9l3.4,0.1c0.4,0,0.7-0.3,0.7-0.6c0,0,0,0,0,0v-7.6c0-0.3,0.3-0.6,0.6-0.6h3.9c0.3,0,0.5,0.2,0.5,0.5l-0.1,7.2
	c0,0.6,0.5,1,1,1c0,0,0,0,0,0h8.4c0.3,0,0.6,0.3,0.6,0.6l0,2.8c0,0.3-0.3,0.6-0.6,0.6c0,0,0,0,0,0l-8.6-0.1
	C1637.3,500.9,1637,501.2,1637,501.6z"/>
<path d="M1190.5,502c2.8-3.9,6.6-5.7,11.4-5.5c0.4,0,0.5,0.2,0.5,0.5v3.8c0,0.4-0.2,0.5-0.6,0.5c-11.3-0.4-12,6.9-11.9,16.4
	c0,4.6,0,9.2,0,13.8c0,0.3-0.2,0.5-0.5,0.5l-3.7,0c-0.3,0-0.5-0.2-0.5-0.5v-34c0-0.3,0.2-0.5,0.5-0.5h3.8c0.3,0,0.5,0.2,0.5,0.5v4.3
	C1190,502.4,1190.2,502.4,1190.5,502z"/>
<path d="M1538.1,502.1c2.8-3.9,6.7-5.8,11.6-5.7c0.4,0,0.6,0.2,0.6,0.6v3.8c0,0.4-0.2,0.6-0.7,0.6c-8.1-0.6-11.6,4-11.8,11.5
	c-0.1,6.2-0.1,12.4,0,18.6c0,0.4-0.2,0.6-0.6,0.6l-3.7,0c-0.3,0-0.5-0.2-0.5-0.5v-34c0-0.3,0.2-0.5,0.5-0.5h3.8
	c0.3,0,0.5,0.2,0.5,0.5l0,4.5C1537.7,502.4,1537.9,502.5,1538.1,502.1z"/>
<path d="M1675.1,501.6c4.8-5.1,10.5-6.6,17.3-4.5c8.3,2.6,9.5,8.9,9.6,17.3c0,5.7,0,11.4,0,17.1c0,0.3-0.2,0.5-0.5,0.5l-3.7,0
	c-0.4,0-0.6-0.2-0.6-0.6c0.1-6.2,0.1-12.3,0-18.4c-0.1-6.7-2.6-12.1-9.8-12.5c-7.4-0.5-12.5,3.9-12.6,11.5c0,6.5-0.1,13-0.1,19.5
	c0,0.3-0.2,0.5-0.5,0.5h-3.8c-0.3,0-0.6-0.3-0.6-0.6l0,0v-33.9c0-0.3,0.2-0.5,0.5-0.5h4c0.3,0,0.5,0.2,0.5,0.5l0,4
	C1674.7,501.9,1674.8,501.9,1675.1,501.6z"/>
<path d="M1911,501.8c8.6-9.8,26.1-6.3,26.9,8.2c0.2,2.9,0.2,10,0,21.3c0,0.5-0.2,0.7-0.7,0.7l-3.6,0c-0.4,0-0.6-0.2-0.6-0.6
	c-0.1-6-0.1-12.1,0-18.1c0-3-0.3-5.4-1.2-7c-4.8-10-21.2-6.5-21.1,4.7c0,6.8,0,13.6,0,20.5c0,0.4-0.2,0.5-0.5,0.5h-3.8
	c-0.3,0-0.6-0.3-0.6-0.6l0,0v-33.9c0-0.3,0.2-0.5,0.5-0.5h4c0.3,0,0.5,0.2,0.5,0.5l0,4.2C1910.7,502,1910.8,502,1911,501.8z"/>
<path d="M1212.4,516.7c0.7,13.5,20.8,16.5,24.4,4.5c0.1-0.3,0.3-0.4,0.5-0.4h4.2c0.4,0,0.7,0.3,0.7,0.7c0,0.1,0,0.2-0.1,0.3
	c-4.8,10.6-16.1,13.6-26,8.5c-12.3-6.3-11.9-26.5,1-32.2c5.4-2.4,12.4-2.1,17.6,0.8c6,3.4,8.6,9.1,7.8,17c0,0.3-0.2,0.4-0.5,0.4
	h-29.2C1212.5,516.2,1212.3,516.4,1212.4,516.7z M1212.5,512.5l25-0.1c0.1,0,0.2-0.1,0.2-0.1v0v-0.1c0-6.5-5.5-11.8-12.3-11.7
	c0,0,0,0,0,0h-0.8c-6.8,0-12.3,5.3-12.2,11.8v0.1C1212.4,512.5,1212.5,512.5,1212.5,512.5L1212.5,512.5z"/>
<path d="M1280.4,525.6c-6.2,7.4-13.8,9.1-22.6,5.1c-4-1.8-6.7-5.2-8.1-10.2c-3.2-11.2,2.3-22.7,14.6-23.9c6.8-0.7,12.1,1.6,16.1,6.8
	c0.3,0.4,0.4,0.3,0.4-0.1l0-5.8c0-0.3,0.2-0.5,0.5-0.5h3.8c0.3,0,0.5,0.2,0.5,0.5v34c0,0.3-0.2,0.5-0.5,0.5h-3.8
	c-0.3,0-0.5-0.2-0.5-0.5l0-5.8C1280.8,525.3,1280.6,525.3,1280.4,525.6z M1267.5,528.6c7.5-0.2,13.5-6.6,13.3-14.4
	c-0.2-7.8-6.4-13.9-13.9-13.7c-7.5,0.2-13.5,6.6-13.3,14.4C1253.8,522.6,1260,528.7,1267.5,528.6z"/>
<path d="M1374.5,516.8c1.1,8.2,6,12.2,14.5,11.7c4.8-0.2,8.1-2.6,10-7.2c0.2-0.4,0.5-0.6,0.9-0.6h4c0.5,0,0.7,0.2,0.5,0.7
	c-3.6,8.5-10.2,12.1-20,10.8c-12.8-1.7-18-14.6-13.4-25.8c6.9-17,36.6-11.8,33.7,9.3c0,0.3-0.2,0.5-0.5,0.5H1375
	C1374.6,516.2,1374.5,516.4,1374.5,516.8z M1374.7,512.5l25.3,0c0.1,0,0.1,0,0.1-0.1v0c0-6.5-5.6-11.8-12.4-11.8c0,0,0,0,0,0h-0.7
	c-6.8,0-12.4,5.3-12.3,11.9v0C1374.6,512.5,1374.7,512.5,1374.7,512.5L1374.7,512.5z"/>
<path d="M1517.5,503l0-5.5c0-0.3,0.2-0.5,0.5-0.5h4c0.3,0,0.5,0.2,0.5,0.5v34c0,0.3-0.2,0.5-0.5,0.5h-4c-0.3,0-0.5-0.2-0.5-0.5
	l0.1-5.6c0-0.4-0.1-0.5-0.4-0.1c-4.3,5.4-10,7.6-17,6.6c-17.6-2.5-20-29-3.3-34.5c8.2-2.7,15-0.9,20.4,5.3
	C1517.4,503.4,1517.5,503.3,1517.5,503z M1504.2,528.6c7.5-0.1,13.5-6.5,13.4-14.2c-0.1-7.8-6.3-14-13.8-13.9c0,0,0,0,0,0
	c-7.5,0.1-13.5,6.5-13.4,14.2C1490.6,522.5,1496.7,528.7,1504.2,528.6L1504.2,528.6z"/>
<path d="M1592,516.8c1.1,8.3,5.9,12.2,14.5,11.7c4.9-0.3,8.2-2.7,10.1-7.3c0.1-0.3,0.3-0.4,0.6-0.4h4.2c0.3,0,0.4,0.2,0.3,0.5
	c-5.3,17.7-34.1,13.8-34.8-4.7c-0.4-10.1,3.3-16.5,11.2-18.9c13.2-4.2,25.1,3.1,24.2,18.1c0,0.4-0.2,0.6-0.6,0.6h-29.3
	C1592.1,516.2,1592,516.4,1592,516.8z M1592.2,512.5l25.3,0c0.1,0,0.1-0.1,0.1-0.1v-0.1c0-6.5-5.6-11.8-12.6-11.8c0,0,0,0,0,0h-0.4
	c-6.9,0-12.6,5.3-12.6,11.8v0.1C1592.1,512.5,1592.2,512.5,1592.2,512.5z"/>
<path d="M1741.8,503l0-5.5c0-0.3,0.2-0.5,0.5-0.5h4c0.3,0,0.5,0.2,0.5,0.5c0,10.5,0,21,0,31.4c0,5.3-0.5,9.1-1.5,11.4
	c-5.7,12.9-29.6,11.6-33.1-2.8c-0.1-0.3,0.1-0.5,0.4-0.5h3.5c0.3,0,0.6,0.1,0.7,0.4c3.6,6.1,8.8,8.6,15.5,7.3
	c10.3-1.9,9.5-10.3,9.5-18.7c0-0.4-0.1-0.5-0.4-0.1c-12.5,14.4-34.8,4.4-31-15.5c2.9-15.1,21.9-18.6,31.1-7.2
	C1741.7,503.4,1741.8,503.4,1741.8,503z M1728.7,528.6c7.5-0.2,13.4-6.6,13.3-14.3c0,0,0,0,0,0c-0.2-7.8-6.4-13.9-13.9-13.7l0,0
	c-7.5,0.2-13.4,6.6-13.3,14.3C1714.9,522.6,1721.2,528.7,1728.7,528.6z"/>
<path d="M1848.8,503l0-5.5c0-0.3,0.2-0.5,0.5-0.5h4c0.3,0,0.5,0.2,0.5,0.5c0,10.3,0,20.6,0,30.9c0,5.3-0.5,9.1-1.5,11.4
	c-5.7,13.2-29.7,12.6-33.2-2.3c-0.1-0.3,0.1-0.5,0.4-0.5h3.4c0.3,0,0.6,0.1,0.7,0.4c3.4,5.9,8.3,8.4,14.7,7.5
	c11-1.5,10.7-10.1,10.4-18.9c0-0.4-0.1-0.4-0.4-0.1c-4.1,5.2-9.5,7.3-16.3,6.5c-19.2-2.2-20.7-31.5-1.6-35.4
	c7.4-1.5,13.4,0.5,18,6.1C1848.7,503.4,1848.8,503.4,1848.8,503z M1835.5,528.6c7.5-0.1,13.5-6.5,13.4-14.2c0,0,0,0,0,0
	c-0.1-7.8-6.3-14-13.8-13.9c0,0,0,0,0,0c-7.5,0.1-13.5,6.5-13.4,14.2c0,0,0,0,0,0C1821.8,522.4,1828,528.7,1835.5,528.6
	L1835.5,528.6z"/>
<path d="M1867.5,516.2c-0.3,0-0.5,0.2-0.5,0.5c0,0,0,0.1,0,0.1c1.2,7.9,5.9,11.8,14,11.7c5.1,0,8.7-2.5,10.6-7.4
	c0.1-0.3,0.3-0.4,0.7-0.4h4.2c0.3,0,0.5,0.2,0.4,0.5c-5.4,17.9-34.1,14-34.8-5.5c-0.9-27.1,39.1-24.5,35.1,0.1
	c0,0.3-0.2,0.4-0.5,0.4L1867.5,516.2z M1867.3,512.6l25.3,0c0.1,0,0.1-0.1,0.1-0.1l0,0v0c0-6.6-5.6-11.9-12.6-11.9c0,0,0,0,0,0h-0.4
	c-6.9,0-12.6,5.4-12.5,12v0C1867.1,512.5,1867.2,512.6,1867.3,512.6L1867.3,512.6z"/>
<path d="M1969.9,501.8c-22.5-9-26.7,28.7-4.2,26.6c4.7-0.4,7.9-2.9,9.5-7.4c0.1-0.4,0.4-0.5,0.8-0.5l3.9,0c0.4,0,0.6,0.2,0.5,0.6
	c-2.1,8.5-10.4,12.1-18.7,11.3c-12.4-1.2-18.1-12.2-15.1-23.5c3.3-12.5,18.5-15.6,28.3-9.3c2.8,1.8,4.7,4.6,5.5,8.4
	c0.1,0.4-0.1,0.5-0.4,0.5l-4,0c-0.4,0-0.7-0.2-0.8-0.6C1974.2,504.9,1972.5,502.8,1969.9,501.8z"/>
<path d="M1320.1,497h4.2c0.2,0,0.4,0.2,0.4,0.4v34.2c0,0.2-0.2,0.4-0.4,0.4h-4.2c-0.2,0-0.4-0.2-0.4-0.4v-34.2
	C1319.8,497.2,1319.9,497,1320.1,497z"/>
<path d="M1348.5,526.5l11.8-29.3c0-0.1,0.2-0.2,0.3-0.2h4.5c0.2,0,0.3,0.1,0.3,0.3c0,0,0,0.1,0,0.1l-14.4,34.3
	c-0.1,0.1-0.2,0.2-0.3,0.2h-5.1c-0.1,0-0.2-0.1-0.3-0.2l-14.4-34.3c-0.1-0.2,0-0.4,0.2-0.4c0,0,0.1,0,0.1,0h4.6
	c0.1,0,0.3,0.1,0.3,0.2l11.8,29.3c0.1,0.2,0.3,0.3,0.4,0.2C1348.4,526.6,1348.5,526.6,1348.5,526.5z"/>
<path d="M1654.9,497h4.3c0.2,0,0.4,0.2,0.4,0.4v34.3c0,0.2-0.2,0.4-0.4,0.4h-4.3c-0.2,0-0.4-0.2-0.4-0.4v-34.3
	C1654.5,497.2,1654.7,497,1654.9,497z"/>
<path d="M2014.5,497h4.4c0.2,0,0.3,0.1,0.3,0.3c0,0,0,0.1,0,0.1l-21.5,50.8c-0.1,0.1-0.2,0.2-0.3,0.2h-4.4c-0.2,0-0.3-0.2-0.3-0.3
	c0,0,0-0.1,0-0.1l6.9-16.2c0-0.1,0-0.2,0-0.3l-14.8-34.1c-0.1-0.2,0-0.4,0.2-0.4c0,0,0.1,0,0.1,0h4.7c0.1,0,0.2,0.1,0.3,0.2
	l11.9,28.5c0.1,0.2,0.3,0.2,0.4,0.2c0.1,0,0.1-0.1,0.2-0.2l11.5-28.5C2014.2,497.1,2014.4,497,2014.5,497z"/>
</svg>
