<?xml version="1.0" encoding="UTF-8" standalone="no"?>
<!DOCTYPE svg PUBLIC "-//W3C//DTD SVG 1.1//EN" "http://www.w3.org/Graphics/SVG/1.1/DTD/svg11.dtd">
<svg xmlns="http://www.w3.org/2000/svg" version="1.1" viewBox="0.00 0.00 2173.00 643.00">
<path fill="#ffffff" d="
  M 733.95 540.08
  C 651.67 510.55 593.95 436.61 584.32 349.50
  C 578.23 294.33 588.20 239.86 617.83 192.57
  C 654.93 133.36 716.62 95.29 785.76 86.58
  C 918.15 69.90 1038.23 155.31 1051.89 291.26
  Q 1055.54 327.60 1049.78 362.92
  C 1038.21 433.79 993.79 495.52 929.86 528.34
  C 869.87 559.15 797.23 562.79 733.95 540.08
  Z
  M 879.19 200.56
  C 857.20 188.42 832.26 184.69 807.25 186.49
  Q 750.58 190.56 719.88 235.09
  C 711.04 247.91 704.70 263.42 701.44 278.48
  Q 693.15 316.75 700.65 355.50
  C 710.27 405.17 745.64 444.04 796.75 450.92
  C 846.30 457.60 891.07 442.65 918.19 400.34
  C 927.22 386.26 933.21 370.45 936.25 354.01
  Q 943.31 315.85 934.97 278.45
  C 927.78 246.25 908.46 216.73 879.19 200.56
  Z"
/>
<path fill="#ffffff" d="
  M 561.12 280.56
  C 575.89 365.58 552.35 458.22 480.31 511.34
  Q 443.08 538.79 397.72 549.89
  Q 364.13 558.12 329.50 558.24
  Q 241.23 558.54 153.04 558.52
  A 0.29 0.29 0.0 0 1 152.75 558.23
  L 152.75 461.52
  A 0.28 0.28 0.0 0 1 153.03 461.24
  Q 236.84 461.20 320.75 461.54
  Q 344.47 461.64 369.18 454.14
  C 413.15 440.79 440.85 406.70 448.52 362.26
  Q 454.59 327.13 447.84 292.54
  C 441.83 261.75 426.77 236.14 401.13 217.97
  C 376.54 200.55 346.43 195.24 316.94 195.25
  Q 235.10 195.27 153.26 195.24
  Q 152.75 195.24 152.75 194.73
  L 152.75 100.02
  Q 152.75 99.54 153.24 99.54
  Q 292.69 99.36 331.74 99.51
  Q 344.98 99.56 362.75 101.55
  C 463.20 112.81 543.36 178.30 561.12 280.56
  Z"
/>
<path fill="#ffffff" d="
  M 1831.04 256.26
  C 1818.42 271.46 1788.95 270.42 1779.45 252.28
  C 1771.92 237.92 1777.56 221.05 1792.59 214.07
  Q 1800.01 210.62 1809.76 211.32
  Q 1821.84 212.19 1829.91 220.57
  C 1839.11 230.13 1839.45 246.13 1831.04 256.26
  Z"
/>
<path fill="#ffffff" d="
  M 1705.00 305.73
  L 1705.00 230.00
  Q 1705.00 229.50 1705.50 229.50
  L 1755.75 229.50
  Q 1756.25 229.50 1756.25 230.00
  L 1756.25 450.25
  Q 1756.25 450.75 1755.75 450.75
  L 1705.50 450.75
  Q 1705.00 450.75 1705.00 450.25
  L 1705.00 428.27
  Q 1705.00 427.42 1704.50 428.11
  Q 1689.69 448.93 1664.12 452.29
  C 1622.26 457.79 1590.10 429.89 1582.35 390.12
  C 1572.97 342.04 1592.99 285.97 1648.83 281.63
  Q 1683.12 278.97 1704.66 305.85
  Q 1705.00 306.27 1705.00 305.73
  Z
  M 1664.88 408.13
  C 1684.28 410.15 1700.27 397.05 1703.87 378.24
  Q 1706.15 366.37 1703.65 355.00
  C 1698.89 333.32 1677.04 320.55 1655.98 328.51
  C 1634.32 336.69 1628.92 360.52 1634.07 380.98
  C 1637.72 395.49 1649.88 406.57 1664.88 408.13
  Z"
/>
<path fill="#ffffff" d="
  M 1299.48 326.50
  L 1280.00 326.50
  Q 1279.50 326.50 1279.50 326.00
  L 1279.50 284.25
  Q 1279.50 283.75 1280.00 283.75
  L 1299.50 283.75
  Q 1300.00 283.75 1300.00 283.25
  L 1300.00 243.75
  Q 1300.00 243.25 1300.50 243.25
  L 1350.75 243.25
  Q 1351.25 243.25 1351.25 243.75
  L 1351.25 283.25
  Q 1351.25 283.75 1351.75 283.75
  L 1384.25 283.75
  Q 1384.75 283.75 1384.75 284.25
  L 1384.75 325.51
  A 1.01 1.01 0.0 0 1 1383.74 326.52
  L 1351.78 326.49
  Q 1351.28 326.49 1351.27 327.00
  Q 1351.18 359.25 1351.28 391.42
  C 1351.31 400.84 1353.27 406.21 1363.24 406.85
  Q 1373.83 407.52 1384.42 407.18
  Q 1385.00 407.17 1385.00 407.74
  L 1385.00 450.20
  Q 1385.00 450.59 1384.61 450.60
  Q 1362.97 451.22 1348.76 450.25
  Q 1341.92 449.78 1332.75 446.77
  C 1307.88 438.58 1299.97 418.05 1300.00 393.62
  Q 1300.04 360.31 1299.98 326.99
  Q 1299.98 326.50 1299.48 326.50
  Z"
/>
<path fill="#ffffff" d="
  M 1181.74 334.03
  C 1183.33 343.86 1199.77 347.02 1207.78 348.87
  Q 1222.84 352.34 1237.40 357.46
  C 1256.31 364.11 1270.83 376.05 1272.35 397.52
  Q 1274.34 425.47 1252.00 440.49
  C 1228.20 456.48 1190.90 456.55 1165.32 445.23
  C 1145.07 436.26 1130.16 418.75 1128.36 396.21
  Q 1128.32 395.75 1128.78 395.75
  L 1178.24 395.75
  Q 1178.80 395.75 1178.90 396.31
  C 1181.94 413.07 1200.08 418.06 1214.49 413.78
  Q 1219.70 412.23 1222.44 408.12
  C 1225.72 403.22 1224.92 396.71 1220.06 393.18
  Q 1217.00 390.95 1211.37 389.13
  C 1196.72 384.41 1179.06 381.11 1162.56 374.66
  Q 1150.78 370.06 1142.50 360.50
  C 1130.43 346.57 1131.71 324.08 1140.00 309.69
  C 1154.43 284.62 1187.84 279.34 1213.91 282.18
  C 1245.36 285.61 1268.51 305.42 1271.70 337.99
  Q 1271.75 338.50 1271.24 338.50
  L 1225.02 338.50
  Q 1224.54 338.50 1224.45 338.03
  C 1221.58 322.71 1208.21 318.13 1194.26 320.07
  C 1187.12 321.06 1180.47 326.14 1181.74 334.03
  Z"
/>
<path fill="#ffffff" d="
  M 2017.24 342.25
  C 2027.33 382.49 2013.09 426.79 1973.28 444.53
  Q 1947.17 456.17 1918.54 452.10
  C 1883.95 447.18 1858.35 425.11 1849.76 391.31
  C 1844.90 372.16 1846.04 349.08 1853.94 330.84
  C 1870.14 293.48 1907.78 277.24 1947.50 282.36
  C 1981.13 286.70 2008.89 308.95 2017.24 342.25
  Z
  M 1920.56 328.52
  C 1901.55 336.07 1897.90 356.20 1899.61 374.99
  C 1901.17 392.10 1911.73 406.95 1929.93 408.41
  Q 1946.56 409.75 1957.61 398.09
  C 1967.77 387.37 1969.19 372.46 1967.58 358.50
  C 1964.85 334.89 1943.87 319.25 1920.56 328.52
  Z"
/>
<path fill="#ffffff" d="
  M 1514.21 429.16
  Q 1490.95 456.41 1454.22 451.77
  C 1417.57 447.13 1399.72 416.95 1399.58 382.49
  Q 1399.40 333.38 1399.54 284.24
  Q 1399.54 283.75 1400.03 283.75
  L 1449.98 283.75
  Q 1450.49 283.75 1450.49 284.26
  Q 1450.55 330.53 1450.51 376.74
  C 1450.50 385.76 1454.45 397.20 1462.23 403.17
  C 1470.65 409.64 1482.53 411.01 1492.75 408.21
  C 1506.92 404.34 1514.34 391.18 1514.37 376.50
  Q 1514.48 330.37 1514.53 284.24
  Q 1514.53 283.75 1515.02 283.75
  L 1565.25 283.75
  Q 1565.75 283.75 1565.75 284.25
  L 1565.75 450.25
  Q 1565.75 450.75 1565.25 450.75
  L 1515.00 450.75
  Q 1514.50 450.75 1514.50 450.25
  L 1514.50 429.26
  Q 1514.50 428.81 1514.21 429.16
  Z"
/>
<rect fill="#ffffff" x="1781.00" y="283.75" width="51.24" height="167.00" rx="0.32"/>
<circle fill="#ffffff" cx="1322.28" cy="487.25" r="3.32"/>
<circle fill="#ffffff" cx="1656.97" cy="487.26" r="3.32"/>
<path fill="#ffffff" d="
  M 1561.99 517.42
  L 1561.96 531.63
  A 0.31 0.31 0.0 0 1 1561.66 531.94
  L 1557.32 532.01
  A 0.31 0.31 0.0 0 1 1557.00 531.70
  L 1557.00 484.81
  A 0.31 0.31 0.0 0 1 1557.31 484.50
  L 1561.68 484.50
  A 0.31 0.31 0.0 0 1 1561.99 484.81
  L 1562.00 511.55
  A 0.31 0.31 0.0 0 0 1562.53 511.76
  L 1576.41 497.10
  A 0.31 0.31 0.0 0 1 1576.63 497.00
  L 1582.85 497.00
  A 0.31 0.31 0.0 0 1 1583.07 497.53
  L 1566.32 514.28
  A 0.31 0.31 0.0 0 0 1566.32 514.72
  L 1583.06 531.46
  A 0.31 0.31 0.0 0 1 1582.84 531.99
  L 1576.91 532.00
  A 0.31 0.31 0.0 0 1 1576.69 531.90
  L 1562.52 517.20
  A 0.31 0.31 0.0 0 0 1561.99 517.42
  Z"
/>
<path fill="#ffffff" d="
  M 1170.13 499.98
  C 1166.08 491.66 1155.83 488.75 1147.55 492.17
  C 1137.84 496.17 1134.74 506.34 1137.49 515.94
  C 1141.77 530.83 1163.01 532.97 1170.31 519.18
  Q 1170.54 518.75 1171.02 518.75
  L 1174.79 518.75
  Q 1176.93 518.76 1175.78 520.57
  Q 1170.64 528.68 1162.69 531.28
  C 1145.80 536.80 1129.62 524.51 1131.70 506.44
  C 1134.32 483.62 1167.52 479.21 1175.90 499.88
  Q 1176.15 500.50 1175.48 500.50
  L 1170.96 500.50
  Q 1170.38 500.50 1170.13 499.98
  Z"
/>
<path fill="#ffffff" d="
  M 1471.99 498.44
  L 1456.91 530.70
  A 2.69 2.69 0.0 0 1 1452.04 530.70
  L 1436.97 498.62
  A 0.25 0.25 0.0 0 0 1436.49 498.73
  L 1436.50 531.37
  Q 1436.50 532.00 1435.88 532.00
  L 1432.12 532.00
  Q 1431.50 532.00 1431.50 531.37
  L 1431.50 488.25
  Q 1431.50 487.75 1432.00 487.75
  L 1436.22 487.75
  Q 1436.66 487.75 1436.85 488.16
  L 1454.11 525.03
  A 0.36 0.36 0.0 0 0 1454.77 525.03
  L 1471.99 488.23
  Q 1472.22 487.75 1472.75 487.75
  L 1477.00 487.76
  Q 1477.50 487.76 1477.50 488.25
  L 1477.50 531.37
  Q 1477.50 532.00 1476.88 532.00
  L 1473.12 532.00
  Q 1472.50 532.00 1472.50 531.37
  L 1472.50 498.56
  Q 1472.50 497.35 1471.99 498.44
  Z"
/>
<path fill="#ffffff" d="
  M 1802.40 521.50
  L 1781.75 521.50
  A 0.32 0.32 0.0 0 0 1781.45 521.71
  L 1777.59 531.79
  A 0.32 0.32 0.0 0 1 1777.29 532.00
  L 1772.73 532.00
  A 0.32 0.32 0.0 0 1 1772.43 531.56
  L 1789.32 487.95
  A 0.32 0.32 0.0 0 1 1789.62 487.75
  L 1794.60 487.75
  A 0.32 0.32 0.0 0 1 1794.90 487.95
  L 1811.72 531.56
  A 0.32 0.32 0.0 0 1 1811.42 531.99
  L 1806.87 532.00
  A 0.32 0.32 0.0 0 1 1806.57 531.79
  L 1802.70 521.71
  A 0.32 0.32 0.0 0 0 1802.40 521.50
  Z
  M 1783.22 517.04
  A 0.34 0.34 0.0 0 0 1783.53 517.50
  L 1800.61 517.50
  A 0.34 0.34 0.0 0 0 1800.92 517.04
  L 1792.39 494.77
  A 0.34 0.34 0.0 0 0 1791.75 494.77
  L 1783.22 517.04
  Z"
/>
<path fill="#ffffff" d="
  M 1296.74 501.00
  L 1292.75 500.99
  Q 1292.25 500.99 1292.25 500.50
  L 1292.25 497.50
  Q 1292.25 497.00 1292.75 497.00
  L 1296.75 497.00
  Q 1297.25 497.00 1297.25 496.50
  L 1297.25 488.75
  Q 1297.25 488.25 1297.75 488.25
  L 1301.75 488.25
  Q 1302.25 488.25 1302.25 488.75
  L 1302.24 496.50
  Q 1302.24 497.00 1302.75 497.00
  L 1311.75 497.00
  Q 1312.25 497.00 1312.25 497.50
  L 1312.25 500.50
  Q 1312.25 501.00 1311.75 501.00
  L 1302.76 501.00
  Q 1302.25 501.00 1302.25 501.51
  Q 1302.20 512.40 1302.38 523.24
  C 1302.47 529.09 1307.89 527.94 1311.76 528.03
  Q 1312.25 528.04 1312.25 528.52
  L 1312.25 531.48
  Q 1312.25 531.98 1311.75 531.99
  C 1304.53 532.13 1297.26 532.43 1297.25 522.75
  Q 1297.25 512.14 1297.25 501.52
  Q 1297.25 501.00 1296.74 501.00
  Z"
/>
<path fill="#ffffff" d="
  M 1637.04 501.65
  Q 1636.88 509.20 1637.10 523.00
  C 1637.19 528.99 1642.33 528.05 1646.48 528.00
  Q 1647.00 527.99 1647.00 528.51
  L 1647.00 531.44
  Q 1647.00 531.81 1646.63 531.85
  C 1640.08 532.52 1632.38 532.33 1632.20 523.99
  Q 1631.96 512.74 1631.99 501.46
  Q 1631.99 500.70 1631.23 500.76
  L 1627.85 501.03
  A 0.71 0.70 -2.7 0 1 1627.09 500.35
  L 1627.00 497.87
  Q 1626.97 496.95 1627.89 496.97
  L 1631.33 497.07
  A 0.66 0.65 0.4 0 0 1632.00 496.42
  L 1632.00 488.87
  A 0.63 0.62 -0.0 0 1 1632.63 488.25
  L 1636.51 488.25
  Q 1637.02 488.26 1637.02 488.76
  L 1636.95 495.98
  A 1.03 1.02 0.3 0 0 1637.98 497.01
  L 1646.37 497.01
  A 0.61 0.61 0.0 0 1 1646.98 497.62
  L 1646.99 500.37
  A 0.61 0.60 -0.5 0 1 1646.38 500.98
  L 1637.78 500.92
  Q 1637.05 500.91 1637.04 501.65
  Z"
/>
<path fill="#ffffff" d="
  M 1190.51 501.97
  Q 1194.72 496.19 1201.96 496.44
  Q 1202.50 496.46 1202.50 496.99
  L 1202.50 500.75
  Q 1202.50 501.29 1201.95 501.27
  C 1190.62 500.83 1189.99 508.19 1190.00 517.66
  Q 1190.01 524.57 1189.99 531.49
  Q 1189.99 532.00 1189.48 532.00
  L 1185.75 531.99
  Q 1185.25 531.99 1185.25 531.50
  L 1185.25 497.50
  Q 1185.25 497.00 1185.75 497.00
  L 1189.50 497.00
  Q 1190.00 497.00 1190.00 497.50
  L 1190.00 501.80
  Q 1190.01 502.65 1190.51 501.97
  Z"
/>
<path fill="#ffffff" d="
  M 1538.11 502.12
  Q 1542.34 496.24 1549.69 496.41
  Q 1550.25 496.42 1550.25 496.98
  L 1550.25 500.74
  Q 1550.25 501.39 1549.60 501.34
  C 1541.49 500.70 1537.96 505.31 1537.82 512.84
  Q 1537.66 522.15 1537.78 531.41
  Q 1537.79 531.99 1537.20 531.99
  L 1533.50 532.00
  Q 1533.00 532.00 1533.00 531.50
  L 1533.00 497.50
  Q 1533.00 497.00 1533.50 497.00
  L 1537.25 497.00
  Q 1537.75 497.00 1537.75 497.50
  L 1537.74 502.00
  Q 1537.74 502.64 1538.11 502.12
  Z"
/>
<path fill="#ffffff" d="
  M 1675.11 501.65
  Q 1682.25 493.99 1692.42 497.12
  C 1700.76 499.70 1701.92 505.98 1701.98 514.40
  Q 1702.05 522.94 1701.98 531.50
  Q 1701.97 532.00 1701.47 532.00
  L 1697.79 531.99
  Q 1697.21 531.99 1697.22 531.41
  Q 1697.34 522.18 1697.17 513.01
  C 1697.05 506.31 1694.56 500.94 1687.40 500.47
  C 1680.03 499.99 1674.87 504.41 1674.82 512.01
  Q 1674.75 521.73 1674.74 531.48
  Q 1674.74 532.00 1674.22 532.00
  L 1670.38 532.00
  A 0.63 0.63 0.0 0 1 1669.75 531.37
  L 1669.75 497.50
  Q 1669.75 497.00 1670.25 497.00
  L 1674.26 497.00
  Q 1674.76 497.00 1674.76 497.51
  L 1674.73 501.50
  Q 1674.72 502.07 1675.11 501.65
  Z"
/>
<path fill="#ffffff" d="
  M 1910.98 501.80
  C 1919.59 491.99 1937.05 495.48 1937.91 510.02
  Q 1938.16 514.38 1937.93 531.32
  Q 1937.92 532.01 1937.23 532.00
  L 1933.61 531.97
  Q 1933.05 531.96 1933.04 531.40
  Q 1932.92 522.33 1933.03 513.31
  Q 1933.09 508.80 1931.88 506.28
  C 1927.08 496.32 1910.71 499.78 1910.74 511.01
  Q 1910.77 521.23 1910.74 531.47
  Q 1910.74 532.00 1910.22 532.00
  L 1906.38 532.00
  A 0.63 0.63 0.0 0 1 1905.75 531.37
  L 1905.75 497.50
  Q 1905.75 497.00 1906.25 497.00
  L 1910.26 497.00
  Q 1910.76 497.00 1910.76 497.51
  L 1910.73 501.71
  Q 1910.73 502.09 1910.98 501.80
  Z"
/>
<path fill="#ffffff" d="
  M 1212.36 516.68
  C 1213.10 530.21 1233.17 533.13 1236.76 521.15
  Q 1236.88 520.75 1237.30 520.75
  L 1241.46 520.75
  A 0.70 0.69 -77.9 0 1 1242.09 521.73
  C 1237.29 532.37 1225.97 535.35 1216.05 530.26
  C 1203.78 523.97 1204.20 503.72 1217.08 498.06
  C 1222.46 495.70 1229.49 495.92 1234.65 498.83
  Q 1243.65 503.90 1242.41 515.85
  Q 1242.37 516.25 1241.96 516.25
  L 1212.77 516.25
  Q 1212.34 516.25 1212.36 516.68
  Z
  M 1212.54 512.53
  L 1237.58 512.45
  A 0.15 0.15 0.0 0 0 1237.73 512.30
  L 1237.73 512.24
  A 12.29 11.77 -0.2 0 0 1225.40 500.51
  L 1224.64 500.51
  A 12.29 11.77 -0.2 0 0 1212.39 512.32
  L 1212.39 512.38
  A 0.15 0.15 0.0 0 0 1212.54 512.53
  Z"
/>
<path fill="#ffffff" d="
  M 1280.38 525.58
  Q 1271.02 536.72 1257.82 530.68
  Q 1251.81 527.93 1249.68 520.48
  C 1246.48 509.32 1252.00 497.76 1264.24 496.54
  Q 1274.39 495.53 1280.36 503.38
  Q 1280.76 503.91 1280.76 503.25
  L 1280.75 497.50
  Q 1280.75 497.00 1281.25 497.00
  L 1285.00 497.00
  Q 1285.50 497.00 1285.50 497.50
  L 1285.50 531.50
  Q 1285.50 532.00 1285.00 532.00
  L 1281.24 532.00
  Q 1280.74 532.00 1280.74 531.49
  L 1280.77 525.73
  Q 1280.77 525.11 1280.38 525.58
  Z
  M 1267.5230 528.5558
  A 14.04 13.61 88.6 0 0 1280.7859 514.1875
  A 14.04 13.61 88.6 0 0 1266.8370 500.4842
  A 14.04 13.61 88.6 0 0 1253.5741 514.8525
  A 14.04 13.61 88.6 0 0 1267.5230 528.5558
  Z"
/>
<path fill="#ffffff" d="
  M 1374.53 516.79
  Q 1376.22 529.16 1389.03 528.51
  Q 1396.21 528.15 1399.07 521.35
  A 0.98 0.97 -36.5 0 1 1399.97 520.75
  L 1403.98 520.75
  Q 1404.75 520.76 1404.45 521.46
  Q 1399.06 534.22 1384.48 532.28
  C 1371.73 530.59 1366.47 517.65 1371.03 506.49
  C 1377.98 489.49 1407.66 494.68 1404.76 515.78
  Q 1404.69 516.25 1404.22 516.25
  L 1375.00 516.25
  Q 1374.46 516.25 1374.53 516.79
  Z
  M 1374.73 512.53
  L 1399.99 512.49
  A 0.10 0.10 0.0 0 0 1400.09 512.39
  L 1400.09 512.34
  A 12.37 11.85 -0.1 0 0 1387.70 500.51
  L 1386.98 500.51
  A 12.37 11.85 -0.1 0 0 1374.63 512.38
  L 1374.63 512.43
  A 0.10 0.10 0.0 0 0 1374.73 512.53
  Z"
/>
<path fill="#ffffff" d="
  M 1517.51 502.99
  L 1517.50 497.50
  Q 1517.50 497.00 1518.00 497.00
  L 1522.00 497.00
  Q 1522.50 497.00 1522.50 497.50
  L 1522.50 531.50
  Q 1522.50 532.00 1522.00 532.00
  L 1517.99 532.00
  Q 1517.48 532.00 1517.48 531.49
  L 1517.54 525.87
  Q 1517.54 525.24 1517.15 525.73
  Q 1510.73 533.83 1500.13 532.29
  C 1482.52 529.74 1480.14 503.28 1496.81 497.77
  Q 1509.11 493.70 1517.17 503.11
  Q 1517.51 503.51 1517.51 502.99
  Z
  M 1504.2462 528.5686
  A 14.05 13.59 89.2 0 0 1517.6387 514.3303
  A 14.05 13.59 89.2 0 0 1503.8538 500.4714
  A 14.05 13.59 89.2 0 0 1490.4613 514.7097
  A 14.05 13.59 89.2 0 0 1504.2462 528.5686
  Z"
/>
<path fill="#ffffff" d="
  M 1592.04 516.78
  Q 1593.71 529.18 1606.53 528.51
  Q 1613.83 528.12 1616.64 521.18
  Q 1616.81 520.75 1617.28 520.75
  L 1621.45 520.75
  Q 1621.93 520.75 1621.79 521.21
  C 1616.46 538.94 1587.73 535.03 1586.98 516.51
  Q 1586.37 501.30 1598.18 497.58
  C 1611.40 493.41 1623.26 500.66 1622.39 515.66
  Q 1622.36 516.25 1621.76 516.25
  L 1592.50 516.25
  Q 1591.97 516.25 1592.04 516.78
  Z
  M 1592.23 512.52
  L 1617.51 512.48
  A 0.12 0.12 0.0 0 0 1617.63 512.36
  L 1617.63 512.29
  A 12.57 11.81 -0.1 0 0 1605.04 500.50
  L 1604.66 500.50
  A 12.57 11.81 -0.1 0 0 1592.11 512.33
  L 1592.11 512.40
  A 0.12 0.12 0.0 0 0 1592.23 512.52
  Z"
/>
<path fill="#ffffff" d="
  M 1741.77 502.99
  L 1741.74 497.50
  Q 1741.74 497.00 1742.25 497.00
  L 1746.23 497.00
  Q 1746.74 497.00 1746.74 497.51
  Q 1746.78 513.23 1746.74 528.94
  Q 1746.72 536.92 1745.21 540.33
  C 1739.49 553.24 1715.57 551.96 1712.10 537.52
  Q 1711.98 537.00 1712.51 537.00
  L 1715.97 537.00
  Q 1716.46 537.00 1716.71 537.43
  Q 1722.11 546.61 1732.23 544.73
  C 1742.55 542.81 1741.75 534.46 1741.77 525.99
  Q 1741.78 525.38 1741.38 525.84
  C 1728.90 540.29 1706.54 530.21 1710.35 510.36
  C 1713.26 495.21 1732.23 491.74 1741.41 503.11
  Q 1741.77 503.56 1741.77 502.99
  Z
  M 1728.6685 528.5664
  A 14.04 13.59 88.7 0 0 1741.9365 514.2217
  A 14.04 13.59 88.7 0 0 1728.0315 500.4936
  A 14.04 13.59 88.7 0 0 1714.7635 514.8383
  A 14.04 13.59 88.7 0 0 1728.6685 528.5664
  Z"
/>
<path fill="#ffffff" d="
  M 1848.77 502.98
  L 1848.74 497.51
  Q 1848.74 497.00 1849.25 497.00
  L 1853.23 497.00
  Q 1853.75 497.00 1853.75 497.52
  Q 1853.75 512.99 1853.76 528.44
  Q 1853.77 536.41 1852.29 539.84
  C 1846.61 553.04 1822.60 552.41 1819.10 537.52
  Q 1818.98 537.00 1819.51 537.00
  L 1822.95 537.00
  Q 1823.42 537.00 1823.66 537.40
  Q 1828.82 546.21 1838.33 544.88
  C 1849.29 543.34 1849.01 534.82 1848.70 525.96
  Q 1848.68 525.39 1848.32 525.84
  Q 1842.23 533.57 1832.01 532.38
  C 1812.76 530.15 1811.35 500.84 1830.40 497.00
  Q 1841.45 494.77 1848.42 503.11
  Q 1848.78 503.54 1848.77 502.98
  Z
  M 1835.5015 528.5590
  A 14.04 13.59 89.3 0 0 1848.9190 514.3540
  A 14.04 13.59 89.3 0 0 1835.1585 500.4810
  A 14.04 13.59 89.3 0 0 1821.7410 514.6860
  A 14.04 13.59 89.3 0 0 1835.5015 528.5590
  Z"
/>
<path fill="#ffffff" d="
  M 1867.50 516.24
  A 0.52 0.52 0.0 0 0 1866.99 516.84
  Q 1868.80 528.63 1881.00 528.55
  Q 1888.67 528.50 1891.62 521.19
  Q 1891.80 520.75 1892.27 520.75
  L 1896.46 520.75
  Q 1896.96 520.75 1896.82 521.23
  C 1891.37 539.10 1862.68 535.20 1862.04 515.76
  C 1861.15 488.65 1901.10 491.26 1897.19 515.85
  Q 1897.13 516.25 1896.71 516.25
  L 1867.50 516.24
  Z
  M 1867.26 512.61
  L 1892.54 512.57
  A 0.14 0.14 0.0 0 0 1892.68 512.43
  L 1892.68 512.40
  A 12.56 11.93 -0.1 0 0 1880.10 500.49
  L 1879.66 500.49
  A 12.56 11.93 -0.1 0 0 1867.12 512.44
  L 1867.12 512.47
  A 0.14 0.14 0.0 0 0 1867.26 512.61
  Z"
/>
<path fill="#ffffff" d="
  M 1969.93 501.83
  C 1947.39 492.85 1943.20 530.51 1965.74 528.47
  Q 1972.77 527.84 1975.25 521.03
  Q 1975.45 520.50 1976.02 520.50
  L 1979.97 520.51
  Q 1980.60 520.51 1980.45 521.13
  C 1978.33 529.65 1970.03 533.19 1961.76 532.42
  C 1949.37 531.26 1943.62 520.26 1946.64 508.87
  C 1949.95 496.35 1965.13 493.27 1974.90 499.57
  Q 1979.15 502.32 1980.41 507.96
  Q 1980.53 508.49 1979.99 508.49
  L 1975.98 508.50
  Q 1975.36 508.50 1975.16 507.90
  Q 1973.71 503.34 1969.93 501.83
  Z"
/>
<rect fill="#ffffff" x="1319.75" y="497.00" width="5.00" height="35.00" rx="0.38"/>
<path fill="#ffffff" d="
  M 1348.51 526.48
  L 1360.31 497.21
  A 0.33 0.33 0.0 0 1 1360.61 497.00
  L 1365.14 497.00
  A 0.33 0.33 0.0 0 1 1365.45 497.46
  L 1351.00 531.80
  A 0.33 0.33 0.0 0 1 1350.70 532.00
  L 1345.63 532.00
  A 0.33 0.33 0.0 0 1 1345.33 531.80
  L 1330.88 497.46
  A 0.33 0.33 0.0 0 1 1331.19 497.00
  L 1335.78 497.00
  A 0.33 0.33 0.0 0 1 1336.08 497.21
  L 1347.89 526.48
  A 0.33 0.33 0.0 0 0 1348.51 526.48
  Z"
/>
<rect fill="#ffffff" x="1654.50" y="497.00" width="5.00" height="35.00" rx="0.37"/>
<path fill="#ffffff" d="
  M 2014.50 497.00
  L 2018.89 497.00
  A 0.33 0.33 0.0 0 1 2019.20 497.46
  L 1997.70 548.30
  A 0.33 0.33 0.0 0 1 1997.39 548.50
  L 1992.95 548.50
  A 0.33 0.33 0.0 0 1 1992.65 548.04
  L 1999.53 531.86
  A 0.33 0.33 0.0 0 0 1999.53 531.60
  L 1984.78 497.46
  A 0.33 0.33 0.0 0 1 1985.08 497.00
  L 1989.81 497.00
  A 0.33 0.33 0.0 0 1 1990.11 497.20
  L 2002.04 525.73
  A 0.33 0.33 0.0 0 0 2002.65 525.73
  L 2014.20 497.21
  A 0.33 0.33 0.0 0 1 2014.50 497.00
  Z"
/>
</svg>
